<svg width="1392" height="498" viewBox="0 0 1392 448" fill="none" xmlns="http://www.w3.org/2000/svg">
  <!-- Черен фон за скриване на видеото -->
  <rect width="1392" height="498" fill="black"/>
  
  <!-- Бели области където видеото ще се показва -->
  <path fill-rule="evenodd" clip-rule="evenodd" d="M0 206.67L316.148 208.999L0 202.34V205.67ZM0 209.67V213H0.59375H2.41016H4.21875H6.02734H7.83594H9.64062H11.4453H13.2461H15.0469H16.8477H18.6445H20.4375H22.2305H24.0234H25.8125H27.6016H29.3906H31.1758H32.957H34.7422H36.5195H38.3008H40.0781H41.8516H43.6289H45.4023H47.1719H48.9414H50.7109H52.4766H54.2422H56.0078H57.7695H59.5312H61.2891H63.0508H64.8086H66.5625H68.3164H70.0703H71.8242H73.5742H75.3242H77.0703H78.8203H80.5664H82.3086H84.0547H85.7969H87.5352H89.2773H91.0156H92.7539H94.4883H96.2266H97.9609H99.6953H101.426H103.156H104.887H106.617H108.348H110.074H111.801H113.527H115.25H116.977H118.699H120.418H122.141H123.863H125.582H127.301H129.02H130.734H132.453H134.168H135.883H137.598H139.309H141.023H142.734H144.445H146.156H147.867H149.574H151.285H152.992H154.699H156.406H158.113H159.82H161.527H163.23H164.934H166.641H168.344H170.047H171.75H173.449H175.152H176.855H178.555H180.254H181.957H183.656H185.355H187.055H188.754H190.453H192.152H193.848H195.547H197.246H198.941H200.641H202.336H204.035H205.73H207.43H209.125H210.82H212.52H214.215H215.91H217.605H219.305H221H222.695H224.395H226.09H227.785H229.48H231.18H232.875H234.57H236.27H237.965H239.664H241.359H243.059H244.754H246.453H248.152H249.848H251.547H253.246H254.945H256.645H258.344H260.043H261.746H263.445H265.145H266.848H268.551H270.25H271.953H273.656H275.359H277.066H278.77H280.473H282.18H283.887H285.594H287.301H289.008H290.715H292.426H294.133H295.844H297.555H299.266H300.977H302.691H304.402H306.117H307.832H309.547H311.266L0 209.67ZM266.27 0H266.16L271.32 2.55371L266.27 0ZM257.145 0H256.797L273.094 7.89453L257.145 0ZM247.625 0H247.02L274.836 13.1836L247.625 0ZM237.68 0H236.797L276.551 18.4229L237.68 0ZM227.285 0H226.098L278.234 23.6104L227.285 0ZM216.402 0H214.891L279.883 28.749L216.402 0ZM205 0H203.137L281.504 33.8398L205 0ZM193.047 0H190.797L283.09 38.8809L193.047 0ZM180.492 0H177.82L284.637 43.874L180.492 0ZM167.293 0H164.164L286.16 48.8242L167.293 0ZM0 198.339L316.059 204.996L0 195.011V198.339ZM0 191.009L315.934 200.99L0 187.681V191.009ZM0 183.678L315.766 196.98L0 180.353V183.678ZM0 176.347L315.555 192.963L0 173.022V176.347ZM0 169.015L315.305 188.939L0 165.694V169.015ZM0 161.684L315.016 184.907L0 158.366V161.684ZM0 154.352L314.676 180.864L0 151.037V154.352ZM0 147.02L314.297 176.811L0 143.71V147.02ZM0 139.687L313.879 172.744L0 136.381V139.687ZM0 132.355L313.422 168.665L0 129.054V132.355ZM0 125.021L312.922 164.569L0 121.726V125.021ZM0 117.689L312.375 160.457L0 114.399V117.689ZM0 110.356L311.785 156.328L0 107.072V110.356ZM0 103.022L311.168 152.181L0 99.7461V103.022ZM0 95.6885L310.508 148.013L0 92.4189V95.6885ZM0 88.3555L309.797 143.821L0 85.0918V88.3555ZM0 81.0215L309.051 139.609L0 77.7666V81.0215ZM0 73.6875L308.27 135.374L0 70.4404V73.6875ZM0 66.3525L307.445 131.112L0 63.1152V66.3525ZM0 59.0176L306.582 126.824L0 55.7891V59.0176ZM0 51.6836L305.68 122.51L0 48.4639V51.6836ZM0 44.3486L304.734 118.165L0 41.1387V44.3486ZM0 37.0127L303.754 113.791L0 33.8135V37.0127ZM0 29.6777L302.734 109.387L0 26.4893V29.6777ZM0 22.3418L301.68 104.95L0 19.165V22.3418ZM0 15.0059L300.59 100.481L0 11.8398V15.0059ZM0 7.66992L278.617 89.832L0 4.88184V7.66992ZM0 0.701172L317.254 97.4307L8.88672 0H0V0.701172ZM22.1641 0L297.078 86.8613L31.0312 0H22.1641ZM43.918 0L295.84 82.249L51.7891 0H43.918ZM64.3164 0L294.562 77.5977L71.293 0H64.3164ZM83.4766 0L293.25 72.9062L89.6484 0H83.4766ZM101.512 0L291.898 68.1738L106.953 0H101.512ZM118.52 0L290.516 63.4004L123.297 0H118.52ZM134.578 0L289.09 58.583L138.754 0H134.578ZM149.773 0L287.648 53.7266L153.402 0H149.773Z" fill="white"/>
  
  <path fill-rule="evenodd" clip-rule="evenodd" d="M1392 205.67L1075.85 208.999L1392 202.34V205.67ZM1392 209.67V213H1391.41H1389.59H1387.78H1385.97H1384.16H1382.36H1380.55H1378.75H1376.95H1375.15H1373.36H1371.56H1369.77H1367.98H1366.19H1364.4H1362.61H1360.82H1359.04H1357.26H1355.48H1353.7H1351.92H1350.15H1348.37H1346.6H1344.83H1343.06H1341.29H1339.52H1337.76H1335.99H1334.23H1332.47H1330.71H1328.95H1327.19H1325.44H1323.68H1321.93H1320.18H1318.43H1316.68H1314.93H1313.18H1311.43H1309.69H1307.95H1306.2H1304.46H1302.72H1300.98H1299.25H1297.51H1295.77H1294.04H1292.3H1290.57H1288.84H1287.11H1285.38H1283.65H1281.93H1280.2H1278.47H1276.75H1275.02H1273.3H1271.58H1269.86H1268.14H1266.42H1264.7H1262.98H1261.27H1259.55H1257.83H1256.12H1254.4H1252.69H1250.98H1249.27H1247.55H1245.84H1244.13H1242.43H1240.71H1239.01H1237.3H1235.59H1233.89H1232.18H1230.47H1228.77H1227.07H1225.36H1223.66H1221.95H1220.25H1218.55H1216.85H1215.14H1213.45H1211.75H1210.04H1208.34H1206.64H1204.95H1203.25H1201.55H1199.85H1198.15H1196.45H1194.75H1193.06H1191.36H1189.66H1187.96H1186.27H1184.57H1182.88H1181.18H1179.48H1177.79H1176.09H1174.39H1172.7H1171H1169.3H1167.61H1165.91H1164.21H1162.52H1160.82H1159.12H1157.43H1155.73H1154.04H1152.34H1150.64H1148.94H1147.25H1145.55H1143.85H1142.15H1140.45H1138.75H1137.05H1135.36H1133.66H1131.96H1130.25H1128.55H1126.86H1125.15H1123.45H1121.75H1120.05H1118.34H1116.64H1114.93H1113.23H1111.53H1109.82H1108.11H1106.41H1104.7H1102.99H1101.29H1099.57H1097.87H1096.16H1094.45H1092.73H1091.02H1089.31H1087.6H1085.88H1084.17H1082.45H1080.73L1392 209.67ZM1125.73 0H1125.84L1120.68 2.55371L1125.73 0ZM1134.86 0H1135.2L1118.91 7.89453L1134.86 0ZM1144.38 0H1144.98L1117.16 13.1836L1144.38 0ZM1154.32 0H1155.2L1115.45 18.4229L1154.32 0ZM1164.71 0H1165.9L1113.77 23.6104L1164.71 0ZM1175.6 0H1177.11L1112.12 28.749L1175.6 0ZM1187 0H1188.86L1110.5 33.8398L1187 0ZM1198.95 0H1201.2L1108.91 38.8809L1198.95 0ZM1211.51 0H1214.18L1107.36 43.874L1211.51 0ZM1224.71 0H1227.84L1105.84 48.8242L1224.71 0ZM1392 198.339L1075.94 204.996L1392 195.011V198.339ZM1392 191.009L1076.07 200.99L1392 187.681V191.009ZM1392 183.678L1076.23 196.98L1392 180.353V183.678ZM1392 176.347L1076.45 192.963L1392 173.022V176.347ZM1392 169.015L1076.7 188.939L1392 165.694V169.015ZM1392 161.684L1076.98 184.907L1392 158.366V161.684ZM1392 154.352L1077.32 180.864L1392 151.037V154.352ZM1392 147.02L1077.7 176.811L1392 143.71V147.02ZM1392 139.687L1078.12 172.744L1392 136.381V139.687ZM1392 132.355L1078.58 168.665L1392 129.054V132.355ZM1392 125.021L1079.08 164.569L1392 121.726V125.021ZM1392 117.689L1079.62 160.457L1392 114.399V117.689ZM1392 110.356L1080.21 156.328L1392 107.072V110.356ZM1392 103.022L1080.83 152.181L1392 99.7461V103.022ZM1392 95.6885L1081.49 148.013L1392 92.4189V95.6885ZM1392 88.3555L1082.2 143.821L1392 85.0918V88.3555ZM1392 81.0215L1082.95 139.609L1392 77.7666V81.0215ZM1392 73.6875L1083.73 135.374L1392 70.4404V73.6875ZM1392 66.3525L1084.55 131.112L1392 63.1152V66.3525ZM1392 59.0176L1085.42 126.824L1392 55.7891V59.0176ZM1392 51.6836L1086.32 122.51L1392 48.4639V51.6836ZM1392 44.3486L1087.27 118.165L1392 41.1387V44.3486ZM1392 37.0127L1088.25 113.791L1392 33.8135V37.0127ZM1392 29.6777L1089.27 109.387L1392 26.4893V29.6777ZM1392 22.3418L1090.32 104.95L1392 19.165V22.3418ZM1392 15.0059L1091.41 100.481L1392 11.8398V15.0059ZM1392 7.66992L1113.38 89.832L1392 4.88184V7.66992ZM1392 0.701172L1074.75 97.4307L1383.11 0H1392V0.701172ZM1369.84 0L1094.92 86.8613L1360.97 0H1369.84ZM1348.08 0L1096.16 82.249L1340.21 0H1348.08ZM1327.68 0L1097.44 77.5977L1320.71 0H1327.68ZM1308.52 0L1098.75 72.9062L1302.35 0H1308.52ZM1290.49 0L1100.1 68.1738L1285.05 0H1290.49ZM1273.48 0L1101.48 63.4004L1268.7 0H1273.48ZM1257.42 0L1102.91 58.583L1253.25 0H1257.42ZM1242.23 0L1104.35 53.7266L1238.6 0H1242.23Z" fill="white"/>
</svg>